<svg xmlns="http://www.w3.org/2000/svg" width="512" height="512" viewBox="0 0 512 512">
  <g id="bacteria" transform="translate(0 0)">
    <path id="Path_2" data-name="Path 2" d="M247.172,97.1a8.826,8.826,0,0,1-8.828-8.824V52.965a8.828,8.828,0,1,1,17.656,0V88.277A8.826,8.826,0,0,1,247.172,97.1Zm0,0" fill="#ffbfbe"/>
    <path id="Path_3" data-name="Path 3" d="M128.574,146.23a8.849,8.849,0,0,1-6.242-2.59L91.117,112.429A8.829,8.829,0,0,1,103.6,99.945l31.215,31.215a8.831,8.831,0,0,1-6.242,15.07Zm0,0" fill="#ffbfbe"/>
    <path id="Path_4" data-name="Path 4" d="M79.449,264.828H44.137a8.828,8.828,0,1,1,0-17.656H79.449a8.828,8.828,0,1,1,0,17.656Zm0,0" fill="#ffbfbe"/>
    <path id="Path_5" data-name="Path 5" d="M97.359,414.641a8.83,8.83,0,0,1-6.242-15.07l31.215-31.211a8.828,8.828,0,0,1,12.484,12.48L103.6,412.055a8.829,8.829,0,0,1-6.242,2.586Zm0,0" fill="#ffbfbe"/>
    <path id="Path_6" data-name="Path 6" d="M247.172,467.863a8.829,8.829,0,0,1-8.828-8.828V423.722a8.828,8.828,0,0,1,17.656,0v35.313A8.829,8.829,0,0,1,247.172,467.863Zm0,0" fill="#ffbfbe"/>
    <path id="Path_7" data-name="Path 7" d="M396.984,414.641a8.813,8.813,0,0,1-6.238-2.586L359.531,380.84a8.826,8.826,0,0,1,12.48-12.48l31.215,31.211a8.828,8.828,0,0,1-6.242,15.07Zm0,0" fill="#ffbfbe"/>
    <path id="Path_8" data-name="Path 8" d="M459.035,264.828H414.9a8.828,8.828,0,0,1,0-17.656h44.137a8.828,8.828,0,0,1,0,17.656Zm0,0" fill="#ffbfbe"/>
    <path id="Path_9" data-name="Path 9" d="M365.77,146.23a8.829,8.829,0,0,1-6.238-15.07l31.215-31.215a8.828,8.828,0,1,1,12.48,12.484L372.012,143.64a8.842,8.842,0,0,1-6.242,2.59Zm0,0" fill="#ffbfbe"/>
    <path id="Path_10" data-name="Path 10" d="M414.9,256A167.725,167.725,0,1,1,247.171,88.277,167.724,167.724,0,0,1,414.9,256Zm0,0" fill="#fb716d"/>
    <path id="Path_11" data-name="Path 11" d="M247.172,397.242a8.828,8.828,0,1,1,0-17.656A123.717,123.717,0,0,0,370.758,256a8.828,8.828,0,1,1,17.656,0A141.41,141.41,0,0,1,247.172,397.242Zm0,0" fill="#ff938f"/>
    <g id="Group_1" data-name="Group 1">
      <path id="Path_12" data-name="Path 12" d="M317.793,194.207A35.311,35.311,0,1,1,282.484,158.9,35.309,35.309,0,0,1,317.793,194.207Zm0,0" fill="#ffbfbe"/>
      <path id="Path_13" data-name="Path 13" d="M194.207,220.691a26.482,26.482,0,1,1-26.484-26.484A26.481,26.481,0,0,1,194.207,220.691Zm0,0" fill="#ffbfbe"/>
      <path id="Path_14" data-name="Path 14" d="M273.656,300.137a26.482,26.482,0,1,1-26.484-26.48A26.484,26.484,0,0,1,273.656,300.137Zm0,0" fill="#ffbfbe"/>
      <path id="Path_15" data-name="Path 15" d="M150.07,308.965a8.771,8.771,0,0,1-3.355-.707,10.175,10.175,0,0,1-2.914-1.852,9.092,9.092,0,0,1-1.852-2.914,8.771,8.771,0,0,1-.707-3.355,9.3,9.3,0,0,1,2.559-6.266,10.187,10.187,0,0,1,2.914-1.855,9.009,9.009,0,0,1,9.621,1.855,9.28,9.28,0,0,1,2.563,6.266,8.844,8.844,0,0,1-.707,3.355,9.1,9.1,0,0,1-1.855,2.914A9.3,9.3,0,0,1,150.07,308.965Zm0,0" fill="#ffbfbe"/>
      <path id="Path_16" data-name="Path 16" d="M194.207,361.93a8.856,8.856,0,0,1-3.355-.7,10.272,10.272,0,0,1-2.914-1.855,9.092,9.092,0,0,1-1.852-2.914,8.829,8.829,0,0,1-.707-3.355,9.3,9.3,0,0,1,2.559-6.266,10.272,10.272,0,0,1,2.914-1.855,9.008,9.008,0,0,1,9.621,1.855,9.28,9.28,0,0,1,2.563,6.266,8.829,8.829,0,0,1-.707,3.355,9.037,9.037,0,0,1-1.855,2.914A9.258,9.258,0,0,1,194.207,361.93Zm0,0" fill="#ffbfbe"/>
      <path id="Path_17" data-name="Path 17" d="M273.656,26.484A26.482,26.482,0,1,1,247.172,0a26.484,26.484,0,0,1,26.484,26.484Zm0,0" fill="#fb716d"/>
      <path id="Path_18" data-name="Path 18" d="M107.707,81.223A35.311,35.311,0,1,1,72.395,45.914,35.312,35.312,0,0,1,107.707,81.223Zm0,0" fill="#fb716d"/>
      <path id="Path_19" data-name="Path 19" d="M44.137,256A22.068,22.068,0,1,1,22.07,233.93,22.069,22.069,0,0,1,44.137,256Zm0,0" fill="#fb716d"/>
      <path id="Path_20" data-name="Path 20" d="M107.707,430.777a35.311,35.311,0,1,1-35.313-35.309A35.312,35.312,0,0,1,107.707,430.777Zm0,0" fill="#fb716d"/>
      <path id="Path_21" data-name="Path 21" d="M273.656,485.516a26.482,26.482,0,1,1-26.484-26.481,26.484,26.484,0,0,1,26.484,26.481Zm0,0" fill="#fb716d"/>
      <path id="Path_22" data-name="Path 22" d="M457.262,430.777a35.311,35.311,0,1,1-35.312-35.309A35.312,35.312,0,0,1,457.262,430.777Zm0,0" fill="#fb716d"/>
      <path id="Path_23" data-name="Path 23" d="M512,256a26.482,26.482,0,1,1-26.484-26.484A26.484,26.484,0,0,1,512,256Zm0,0" fill="#fb716d"/>
      <path id="Path_24" data-name="Path 24" d="M457.262,81.223a35.311,35.311,0,1,1-35.312-35.309A35.312,35.312,0,0,1,457.262,81.223Zm0,0" fill="#fb716d"/>
    </g>
  </g>
</svg>
