<?xml version="1.0" encoding="iso-8859-1"?>
<!-- Generator: Adobe Illustrator 19.0.0, SVG Export Plug-In . SVG Version: 6.00 Build 0)  -->
<svg version="1.1" id="Capa_1" xmlns="http://www.w3.org/2000/svg" xmlns:xlink="http://www.w3.org/1999/xlink" x="0px" y="0px"
	 viewBox="0 0 512 512" style="enable-background:new 0 0 512 512;" xml:space="preserve">
<g>
	<polygon style="fill:#D6EAF1;" points="144.978,221.634 170.598,503.46 341.402,503.46 367.022,221.634 	"/>
	<rect x="119.357" y="187.474" style="fill:#D6EAF1;" width="273.285" height="34.161"/>
</g>
<path style="fill:#D5DFE3;" d="M144.978,187.474c0-51.882,42.06-93.942,93.942-93.942h34.161c51.882,0,93.942,42.06,93.942,93.942
	H144.978z"/>
<g>
	<path style="fill:#86C8D6;" d="M264.54,484.244h-17.08V25.211c0-3.672,2.357-6.935,5.841-8.096l51.241-17.08l5.397,16.226
		l-45.4,15.108V484.244z"/>
	<path style="fill:#86C8D6;" d="M341.402,503.46c0,0-165.679,1.426-170.445,1.426l-20.548-223.471
		c9.83,0.179,19.215,4.133,26.218,11.042c4.185,4.185,6.243,6.038,11.034,6.038c4.791,0,6.832-1.853,11.025-6.038
		c10.299-12.759,28.994-14.757,41.753-4.458c1.64,1.324,3.134,2.818,4.458,4.458c4.185,4.185,6.243,6.038,11.034,6.038
		s6.832-1.853,11.034-6.038c10.325-12.776,29.045-14.757,41.821-4.432c1.631,1.315,3.117,2.801,4.432,4.432
		c4.193,4.185,6.251,6.038,11.06,6.038s6.832-1.853,11.102-6.046c7.003-6.892,16.38-10.846,26.21-11.034L341.402,503.46z"/>
</g>
<g>
	<path style="fill:#D6EAF1;" d="M226.109,383.898c-11.794,0-21.35-9.556-21.35-21.35s9.556-21.35,21.35-21.35
		s21.35,9.556,21.35,21.35S237.903,383.898,226.109,383.898z M226.109,358.277c-2.357,0-4.27,1.913-4.27,4.27s1.913,4.27,4.27,4.27
		c2.357,0,4.27-1.913,4.27-4.27S228.467,358.277,226.109,358.277z"/>
	<path style="fill:#D6EAF1;" d="M268.81,443.679c-16.508,0-29.891-13.382-29.891-29.891s13.382-29.891,29.891-29.891
		s29.891,13.382,29.891,29.891S285.318,443.679,268.81,443.679z M268.81,400.978c-7.071,0-12.81,5.739-12.81,12.81
		s5.739,12.81,12.81,12.81s12.81-5.739,12.81-12.81S275.882,400.978,268.81,400.978z"/>
	<path style="fill:#D6EAF1;" d="M281.621,358.277c-9.437,0-17.08-7.643-17.08-17.08c0-9.437,7.643-17.08,17.08-17.08
		c9.437,0,17.08,7.643,17.08,17.08C298.701,350.634,291.057,358.277,281.621,358.277z"/>
</g>
<path d="M392.643,178.934h-17.516c-4.475-53.052-48.807-93.865-102.046-93.942h-8.54V31.368l45.4-15.142L304.542,0l-51.241,17.08
	c-3.501,1.161-5.85,4.441-5.841,8.13v59.781h-8.54c-53.239,0.077-97.571,40.89-102.046,93.942h-17.516
	c-4.714,0-8.54,3.826-8.54,8.54v34.161c0,4.714,3.826,8.54,8.54,8.54h17.823l24.878,274.062c0.401,4.407,4.108,7.78,8.54,7.763
	h170.803c4.432,0.017,8.139-3.356,8.54-7.763l24.878-274.062h17.823c4.714,0,8.54-3.826,8.54-8.54v-34.161
	C401.183,182.76,397.357,178.934,392.643,178.934z M238.92,102.072h34.161c43.837,0.051,80.542,33.247,84.975,76.861h-204.11
	C158.377,135.319,195.083,102.123,238.92,102.072z M333.605,494.92H178.396l-17.618-193.862c1.324,1.068,2.579,2.203,3.775,3.416
	c10.299,12.759,28.994,14.757,41.753,4.458c1.64-1.324,3.134-2.818,4.458-4.458c4.185-4.185,6.243-6.038,11.034-6.038
	c4.791,0,6.832,1.853,11.025,6.038c10.308,12.759,29.002,14.757,41.77,4.449c1.64-1.324,3.126-2.81,4.449-4.449
	c4.185-4.185,6.243-6.038,11.034-6.038s6.832,1.853,11.102,6.046c10.342,12.776,29.088,14.757,41.872,4.407
	c1.623-1.315,3.1-2.793,4.407-4.407c1.204-1.221,2.468-2.374,3.8-3.459L333.605,494.92z M352.965,281.954
	c-6.849,1.512-13.032,5.192-17.618,10.496c-4.193,4.193-6.251,6.046-11.102,6.046c-4.851,0-6.832-1.853-11.059-6.038
	c-10.325-12.776-29.045-14.757-41.821-4.432c-1.631,1.315-3.117,2.801-4.432,4.432c-4.185,4.185-6.234,6.038-11.034,6.038
	s-6.832-1.853-11.034-6.038c-10.299-12.759-28.994-14.757-41.753-4.458c-1.64,1.324-3.134,2.818-4.458,4.458
	c-4.185,4.185-6.234,6.038-11.025,6.038c-4.791,0-6.832-1.853-11.034-6.038c-4.569-5.312-10.744-8.993-17.593-10.496l-4.629-51.788
	h203.341L352.965,281.954z M384.103,213.094H127.898v-17.08h256.205V213.094z"/>
<path d="M247.46,362.547c0-11.794-9.556-21.35-21.35-21.35s-21.35,9.556-21.35,21.35s9.556,21.35,21.35,21.35
	S247.46,374.341,247.46,362.547z M226.109,366.817c-2.357,0-4.27-1.913-4.27-4.27s1.913-4.27,4.27-4.27
	c2.357,0,4.27,1.913,4.27,4.27S228.467,366.817,226.109,366.817z"/>
<path d="M268.81,383.898c-16.508,0-29.891,13.382-29.891,29.891s13.382,29.891,29.891,29.891s29.891-13.382,29.891-29.891
	S285.318,383.898,268.81,383.898z M268.81,426.598c-7.071,0-12.81-5.739-12.81-12.81s5.739-12.81,12.81-12.81
	s12.81,5.739,12.81,12.81S275.882,426.598,268.81,426.598z"/>
<circle cx="281.621" cy="341.197" r="17.08"/>
<g>
</g>
<g>
</g>
<g>
</g>
<g>
</g>
<g>
</g>
<g>
</g>
<g>
</g>
<g>
</g>
<g>
</g>
<g>
</g>
<g>
</g>
<g>
</g>
<g>
</g>
<g>
</g>
<g>
</g>
</svg>
